<svg id="Layer_1" data-name="Layer 1" xmlns="http://www.w3.org/2000/svg" viewBox="0 0 685.61 442.84"><defs><style>.cls-1{fill:#1d1d1b;}.cls-2{fill:none;stroke:#1d1d1b;stroke-miterlimit:10;stroke-width:1.85px;}</style></defs><path class="cls-1" d="M253.94,76.22h2.44q15,0,33.93,17a21.94,21.94,0,0,1,3.89,12.41q0,6.81-8.39,39.77-20.31,90-20.31,136.1v3.41q0,22.62,5,35.51,30.52-9.85,73.95-78.81a563.14,563.14,0,0,0,45.12-90.74q9.48-23.1,17.63-55.46,1.1-5.59,1.83-5.59h.24q7.9,1.22,21.17,11.06c1.7,1.63,2.55,2.68,2.55,3.17l-23.35,127.7Q397.83,292.85,385.18,332A302.91,302.91,0,0,1,368,371.17h.24q81.74.74,160.92,2.07,10.81,3,22.13,12.64l.73,1.1v.49l-.48.73c-.49,0-1.91-.09-4.26-.25q-105-1.57-188.4-2.07-29.45,45.86-77.6,62.28-21.53,6.57-40.14,6.57h-5.1q-43.92,0-88.31-28.1-17-12.17-20.67-21.77a10.63,10.63,0,0,1-1.34-5v-1.58q0-19.34,85.63-24.2,43.65-2.93,111.41-2.92h12.4a257.52,257.52,0,0,0,23.48-47.92q15.69-43.06,30.4-129a34.4,34.4,0,0,0,.49-4.13v-.25h-.24a735.94,735.94,0,0,1-48.53,84.53,295.73,295.73,0,0,1-22.38,28.22Q294,329.93,275,329.94q-13,0-25.67-15.57-8.5-14-8.51-43.3,0-58.14,28.09-171.49a43.38,43.38,0,0,0,.86-7.55h-.25q-27.24,7.06-73.34,41.24-16.41,12.53-40.5,34.66Q97.89,224.48,97.9,253.68q0,5.1,3.89,12a2.36,2.36,0,0,1-1.1.48q-10.09-2.43-22.5-12.52a19.67,19.67,0,0,1-4.25-12.17v-2.79q0-20.07,31.74-58.14,7.66-9.24,26.39-27.61,29.07-27.12,52.55-43.3,26.15-18.24,43.3-25.54Q244.57,76.22,253.94,76.22ZM150.2,412.4q0,11.19,18.36,19.46A134.82,134.82,0,0,0,215,440Q276,440,319.74,391.6l4.38-5.47h-.24q-69.21,0-127,6.08Q150.21,398.53,150.2,412.4Z" transform="translate(-73.94 -76.22)"/><path class="cls-1" d="M454.63,263.53h.73q6.31,0,19.95,9.12,27.48,1.1,7.78,12.77a60.37,60.37,0,0,1,2.92,18q0,17-8.76,33.69-2.43,5.11-11.67,13.75-15.21,12.76-31,12.77-10.95,0-25.54-16.3-3.78-5.35-3.77-14.11,0-19.46,16.78-44.27,9.74-11.68,13.75-12.77,9.72,1.81,23.23,13l1,1.34V291a61.7,61.7,0,0,0-14.23,14.71q-15.08,23.59-15.08,40.75v1.82q0,1.21.24,4,7.3,0,22.14-10.46,19.09-17,19.09-37.34v-3.17a46.13,46.13,0,0,0-3-15q-14.84-5.58-23.11-13.74a5.28,5.28,0,0,1-1.09-1.82Q444.9,267.9,454.63,263.53Z" transform="translate(-73.94 -76.22)"/><path class="cls-1" d="M586.59,266.45q8.52,0,22.38,11.19,6.69,5.6,6.69,13.25a19.48,19.48,0,0,0,.25,2.8q0,17.16-13.75,71l-2.31,11.19a35,35,0,0,1,12.77-2.67A34,34,0,0,1,624.05,379v.12q0,.49-9.12,3.05a62.31,62.31,0,0,0-16.66,8.27,4.13,4.13,0,0,0-2.55,4q-19.23,75.9-32.6,106.54a60,60,0,0,1-10.58,16.55,6.66,6.66,0,0,1-4.5,1.58q-6.69,0-23.35-12.65-4.63-3.9-4.63-14.35,0-24.94,15.82-59.24a164.63,164.63,0,0,1,15.81-24.69A126.59,126.59,0,0,1,567.86,392q14.83-62.4,19.22-85.51a64.25,64.25,0,0,0,1.58-13.5,9.2,9.2,0,0,0-.73-2.79h-.36q-2.57,0-9.86,13.13-10.34,19.21-27.85,41.11-20.31,22.14-33.44,22.14a99.33,99.33,0,0,1-15.94-9.61,23.66,23.66,0,0,1-9.61-19.46q0-20.19,26.52-47.07,20-17.76,33.81-17.76,8.4,0,20.8,6.57h.24Q579.42,266.44,586.59,266.45Zm-71.51,87.08h.24q14-5.59,33.33-36.36,12.52-19.1,17.15-27.61h-.25q-28.95,12.29-45.85,45.73Q515.08,345.75,515.08,353.53Zm45.24,67.26Q549.87,436.48,545,448.4q-8.64,22-8.64,35.64c0,2.11.2,3.16.61,3.16a602,602,0,0,0,22.87-64,11.91,11.91,0,0,0,.73-2.31v-.12Z" transform="translate(-73.94 -76.22)"/><path class="cls-1" d="M712.84,268.88q7.42.74,16.54,6.57,7.67,5.24,7.67,12,0,8.26-8.52,40.5a75.28,75.28,0,0,0-1.82,15.57c0,.89.08,2.76.24,5.59h.61q3.41,0,18.12-15.32l.61-.73q4.26.36,13.26,6.81-19.71,21.29-22,21.29a13.1,13.1,0,0,1-7.9,2.91h-1.58q-8.88,0-23.36-15a18,18,0,0,1-3.52-10.82v-.49q0-10,7.9-34.78v-.25h-.24A267.34,267.34,0,0,1,691,330.91q-4.38,7.66-19.22,22.62-14.34,12.66-24,12.65a102.82,102.82,0,0,1-15.93-9.49q-9.24-7.41-9.24-18.12v-1.34q0-16.91,19.94-40,13.14-13.74,19.83-17,11.19-6.57,18.85-6.57h1.34q8.15,0,20.19,6.81Q709.92,268.88,712.84,268.88Zm-66.28,83.56v.85q9.24-2.67,27.12-26.27a425.18,425.18,0,0,0,22.86-36.37v-.73q-8.14,1.59-24.44,15.81-14.6,15.21-19.46,25.79Q646.55,343.31,646.56,352.44Z" transform="translate(-73.94 -76.22)"/><path class="cls-1" d="M469.52,125.93h7.22v65.23h27.78v7h-35Z" transform="translate(-73.94 -76.22)"/><path class="cls-1" d="M550.33,124.12q16.39,0,27.45,10.94a38.34,38.34,0,0,1,0,53.84,36.55,36.55,0,0,1-26.88,11,37,37,0,0,1-27.11-11,36.14,36.14,0,0,1-11-26.6,38.51,38.51,0,0,1,5-19.29,37.2,37.2,0,0,1,32.54-18.94Zm.32,7a30.81,30.81,0,0,0-26.4,15.42,31.22,31.22,0,0,0-4,15.76,30.35,30.35,0,0,0,30.43,30.6,30.81,30.81,0,0,0,15.55-4.07,29.23,29.23,0,0,0,11.16-11.15,31.37,31.37,0,0,0,4-15.72,30.54,30.54,0,0,0-4-15.54,29.92,29.92,0,0,0-11.28-11.13A30.54,30.54,0,0,0,550.65,131.14Z" transform="translate(-73.94 -76.22)"/><path class="cls-1" d="M597.81,125.93h7.85l23.93,55.78,24.31-55.78h7.86l-31.41,72.2h-1.57Z" transform="translate(-73.94 -76.22)"/><path class="cls-1" d="M673.93,125.93H715.3V133H681.14v22.63H715v7.06H681.14v28.37H715v7.07H673.93Z" transform="translate(-73.94 -76.22)"/><line class="cls-2" x1="395.1" y1="145.55" x2="640.74" y2="145.55"/></svg>